<?xml version="1.0" encoding="UTF-8" standalone="no"?>
<!DOCTYPE svg PUBLIC "-//W3C//DTD SVG 1.1//EN" "http://www.w3.org/Graphics/SVG/1.1/DTD/svg11.dtd">
<svg width="100%" height="100%" viewBox="0 0 1080 1080" version="1.1" xmlns="http://www.w3.org/2000/svg" xmlns:xlink="http://www.w3.org/1999/xlink" xml:space="preserve" xmlns:serif="http://www.serif.com/" style="fill-rule:evenodd;clip-rule:evenodd;stroke-linecap:round;stroke-linejoin:round;stroke-miterlimit:3;">
    <g>
        <g transform="matrix(0.917476,0,0,1.00267,46.1735,43.3904)">
            <path d="M300.456,208.729C327.715,170.185 374.618,146.596 425.292,146.583L538.219,146.556C538.364,146.556 538.509,146.556 538.655,146.557L634.811,146.925C688.331,147.13 738.33,170.192 770.365,208.729L848.358,208.729C968.222,208.729 1065.39,297.642 1065.39,407.323L1065.39,690.299C1065.39,801.28 967.07,891.248 845.783,891.248L232.561,891.248C110.25,891.248 11.097,800.52 11.097,688.601L11.097,407.262C11.097,354.608 33.956,304.11 74.646,266.878C115.335,229.646 170.522,208.729 228.065,208.729L300.456,208.729ZM967.297,407.323C967.297,347.216 914.046,298.49 848.358,298.49L753.968,298.49C730.805,298.49 709.285,287.54 697.063,269.535L696.22,268.294C682.934,248.723 659.58,236.781 634.401,236.685L538.245,236.317L425.318,236.344C406.788,236.348 389.739,245.609 380.862,260.493L378.371,264.668C365.935,285.518 342.048,298.49 316.089,298.49L228.065,298.49C196.538,298.49 166.302,309.949 144.009,330.348C121.717,350.747 109.193,378.414 109.193,407.262L109.193,688.601C109.193,750.946 164.427,801.488 232.561,801.488L845.783,801.488C912.893,801.488 967.297,751.707 967.297,690.299L967.297,407.323Z"/>
        </g>
        <g transform="matrix(1,0,0,1,64.5302,16.1076)">
            <circle cx="475.47" cy="547.568" r="142.304" style="fill:none;stroke:black;stroke-width:80px;"/>
        </g>
    </g>
</svg>
