<?xml version="1.0" encoding="UTF-8" standalone="no"?>
<!DOCTYPE svg PUBLIC "-//W3C//DTD SVG 1.1//EN" "http://www.w3.org/Graphics/SVG/1.1/DTD/svg11.dtd">
<svg width="100%" height="100%" viewBox="0 0 1080 1080" version="1.1" xmlns="http://www.w3.org/2000/svg" xmlns:xlink="http://www.w3.org/1999/xlink" xml:space="preserve" xmlns:serif="http://www.serif.com/" style="fill-rule:evenodd;clip-rule:evenodd;stroke-linecap:round;stroke-linejoin:round;stroke-miterlimit:3;">
    <g>
        <g transform="matrix(0.917476,0,0,0.881264,46.1735,72.0798)">
            <path d="M320.616,228.136L321.869,226.035C344.134,188.707 383.34,166.001 425.546,165.99L538.229,165.963C538.317,165.963 538.405,165.963 538.493,165.964L647.025,166.379C686.506,166.53 723.479,186.551 746.266,220.118L751.709,228.136L945.498,228.136C994.858,228.136 1034.87,269.795 1034.87,321.184L1034.87,778.797C1034.87,830.184 994.86,871.841 945.502,871.841L130.991,871.841C81.631,871.841 41.616,830.182 41.616,778.793L41.616,321.184C41.616,296.506 51.032,272.839 67.793,255.389C84.555,237.939 107.288,228.136 130.992,228.136L320.616,228.136ZM967.297,321.184C967.297,308.65 957.537,298.49 945.498,298.49L744.937,298.49C727.24,298.49 710.645,289.544 700.432,274.498L691.08,260.723C680.908,245.737 664.402,236.799 646.776,236.732L538.245,236.317L425.562,236.344C406.72,236.348 389.217,246.485 379.277,263.15L374.187,271.684C364.244,288.352 346.736,298.49 327.89,298.49L130.991,298.49C125.21,298.49 119.665,300.881 115.577,305.137C111.489,309.393 109.193,315.165 109.193,321.184L109.193,778.793C109.193,791.327 118.952,801.488 130.991,801.488L945.502,801.488C957.539,801.488 967.297,791.329 967.297,778.797L967.297,321.184Z"/>
        </g>
        <g transform="matrix(1,0,0,1,64.5302,-7.4028)">
            <circle cx="475.47" cy="547.568" r="142.304" style="fill:none;stroke:black;stroke-width:86px;"/>
        </g>
    </g>
</svg>
