<?xml version="1.0" encoding="UTF-8" standalone="no"?>
<!DOCTYPE svg PUBLIC "-//W3C//DTD SVG 1.1//EN" "http://www.w3.org/Graphics/SVG/1.1/DTD/svg11.dtd">
<svg width="100%" height="100%" viewBox="0 0 1080 1080" version="1.1" xmlns="http://www.w3.org/2000/svg" xmlns:xlink="http://www.w3.org/1999/xlink" xml:space="preserve" xmlns:serif="http://www.serif.com/" style="fill-rule:evenodd;clip-rule:evenodd;stroke-linecap:round;stroke-linejoin:round;stroke-miterlimit:3;">
    <g>
        <path d="M143.38,615.293C205.932,615.293 256.716,666.077 256.716,728.629C256.716,791.18 205.932,841.964 143.38,841.964C80.829,841.964 30.045,791.18 30.045,728.629C30.045,666.077 80.829,615.293 143.38,615.293ZM143.38,677.293C115.048,677.293 92.045,700.296 92.045,728.629C92.045,756.961 115.048,779.964 143.38,779.964C171.713,779.964 194.716,756.961 194.716,728.629C194.716,700.296 171.713,677.293 143.38,677.293Z"/>
        <g transform="matrix(0.97487,0,0,1,6.00587,0)">
            <path d="M238.995,728.629L858.125,728.629" style="fill:none;stroke:black;stroke-width:62.78px;"/>
        </g>
        <g transform="matrix(1,0,0,1,431.434,-321.992)">
            <path d="M143.38,615.293C205.932,615.293 256.716,666.077 256.716,728.629C256.716,791.18 205.932,841.964 143.38,841.964C80.829,841.964 30.045,791.18 30.045,728.629C30.045,666.077 80.829,615.293 143.38,615.293ZM143.38,677.293C115.048,677.293 92.045,700.296 92.045,728.629C92.045,756.961 115.048,779.964 143.38,779.964C171.713,779.964 194.716,756.961 194.716,728.629C194.716,700.296 171.713,677.293 143.38,677.293Z"/>
        </g>
        <g transform="matrix(1,0,0,1,720.296,-321.992)">
            <path d="M143.38,615.293C205.932,615.293 256.716,666.077 256.716,728.629C256.716,791.18 205.932,841.964 143.38,841.964C80.829,841.964 30.045,791.18 30.045,728.629C30.045,666.077 80.829,615.293 143.38,615.293ZM143.38,677.293C115.048,677.293 92.045,700.296 92.045,728.629C92.045,756.961 115.048,779.964 143.38,779.964C171.713,779.964 194.716,756.961 194.716,728.629C194.716,700.296 171.713,677.293 143.38,677.293Z"/>
        </g>
        <g transform="matrix(1,0,0,1,793.334,0)">
            <path d="M143.38,615.293C205.932,615.293 256.716,666.077 256.716,728.629C256.716,791.18 205.932,841.964 143.38,841.964C80.829,841.964 30.045,791.18 30.045,728.629C30.045,666.077 80.829,615.293 143.38,615.293ZM143.38,677.293C115.048,677.293 92.045,700.296 92.045,728.629C92.045,756.961 115.048,779.964 143.38,779.964C171.713,779.964 194.716,756.961 194.716,728.629C194.716,700.296 171.713,677.293 143.38,677.293Z"/>
        </g>
        <g transform="matrix(1.5255,0.151393,0.130618,1.30234,-200.191,-250.256)">
            <path d="M402.742,457.972C339.654,466.217 307.767,584.765 307.767,584.765C293.582,634.085 271.149,725.233 225.787,725.386" style="fill:none;stroke:black;stroke-width:39.79px;"/>
        </g>
        <g transform="matrix(0.741376,0,0,1,194.661,0.516717)">
            <path d="M762.674,406.12L642.018,406.637" style="fill:none;stroke:black;stroke-width:70.44px;"/>
        </g>
    </g>
</svg>
